<?xml version="1.0" encoding="UTF-8"?>
<svg width="322px" height="70px" viewBox="0 0 322 70" version="1.1" xmlns="http://www.w3.org/2000/svg" xmlns:xlink="http://www.w3.org/1999/xlink">
    <!-- Generator: Sketch 63.1 (92452) - https://sketch.com -->
    <title>OC Logo_Horizontal_Full Color</title>
    <desc>Created with Sketch.</desc>
    <defs>
        <polygon id="path-1" points="-19 107 341 107 341 -37 -19 -37"></polygon>
    </defs>
    <g id="OC-Logo_Horizontal_Full-Color" stroke="none" stroke-width="1" fill="none" fill-rule="evenodd">
        <path d="M16.0010128,39.4213774 C23.853146,39.4213774 27.6591974,46.066267 27.6591974,52.9995029 C27.6591974,59.7905542 24.1964806,66.5806112 16.0010128,66.5806112 C7.80554501,66.5806112 4.34080263,59.7905542 4.34080263,52.9995029 C4.34080263,46.066267 8.14584125,39.4213774 16.0010128,39.4213774 M16.0010128,70 C26.0984935,70 32,63.0150607 32,52.9995029 C32,43.224565 26.0488669,36 16.0010128,36 C5.95113305,36 0,43.224565 0,52.9995029 C0,63.0150607 5.90150652,70 16.0010128,70" id="Fill-1" fill="#231F20"></path>
        <polygon id="Fill-3" fill="#231F20" points="35 69 50 69 50 65.4716024 38.8273447 65.4716024 38.8273447 41 35 41"></polygon>
        <polygon id="Fill-5" fill="#231F20" points="55.5798415 69 59.4566203 69 59.4566203 57.2860041 70 41 65.4649375 41 57.5970673 53.5547667 49.5330916 41 45 41 55.5798415 57.2860041"></polygon>
        <polygon id="Fill-7" fill="#231F20" points="72 69 75.9266702 69 75.9266702 44.7707911 76.005523 44.7707911 85.0745941 69 88.9244078 69 97.9934788 44.7707911 98.0723316 44.7707911 98.0723316 69 102 69 102 41 95.5200958 41 87.0778547 64.2677485 78.478906 41 72 41"></polygon>
        <path d="M107,69 L111.045475,69 L111.045475,57.8083164 L115.009712,57.8083164 C120.107176,57.8083164 125,55.6024341 125,49.3813387 C125,43.005071 120.188414,41 114.402994,41 L107,41 L107,69 Z M111.045475,44.5294118 L114.484232,44.5294118 C116.990288,44.5294118 120.712866,45.8144016 120.712866,49.341785 C120.712866,53.035497 117.558958,54.2789047 115.050846,54.2789047 L111.045475,54.2789047 L111.045475,44.5294118 Z" id="Fill-9" fill="#231F20"></path>
        <mask id="mask-2" fill="white">
            <use xlink:href="#path-1"></use>
        </mask>
        <g id="Clip-12"></g>
        <polygon id="Fill-11" fill="#231F20" mask="url(#mask-2)" points="128 69 132 69 132 41 128 41"></polygon>
        <path d="M155.960494,42.2064715 C153.967971,41.3219288 151.855916,41 149.703343,41 C141.217645,41 135,46.7439417 135,55.3801653 C135,64.2987113 140.858039,70 149.66485,70 C151.296754,70 153.886933,69.8821964 156,68.9976537 L155.760938,65.099979 C154.36607,65.9459308 151.695866,66.4679227 149.703343,66.4679227 C143.927355,66.4679227 139.224109,62.0878624 139.224109,55.5020311 C139.224109,49.19446 143.487724,44.5330929 149.903912,44.5330929 C151.934928,44.5330929 153.886933,45.0550847 155.640394,46.100084 L155.960494,42.2064715 Z" id="Fill-13" fill="#231F20" mask="url(#mask-2)"></path>
        <path d="M187.643706,70 C189.557075,70 192.547224,69.85581 195,68.8932175 L194.752687,65.1840543 C192.889187,66.0521775 189.949927,66.5802112 187.693576,66.5802112 C180.342371,66.5802112 174.362075,61.140768 174.362075,53.0004972 C174.362075,45.2460589 179.79991,39.4197888 187.939871,39.4197888 C190.293926,39.4197888 192.547224,39.9985376 194.656001,41.0555994 L194.949113,37.2987043 C192.644928,36.3838437 190.194187,36 187.693576,36 C177.447891,36 170,42.7411307 170,52.8563072 C170,63.3075956 177.056058,70 187.643706,70" id="Fill-14" fill="#231F20" mask="url(#mask-2)"></path>
        <path d="M196,55.5020311 C196,64.0163888 200.759732,70 209.000492,70 C217.241251,70 222,64.0163888 222,55.5020311 C222,47.1857053 217.201907,41 209.000492,41 C200.79711,41 196,47.1857053 196,55.5020311 M200.101691,55.5020311 C200.101691,49.7966802 203.042712,44.4934865 209.000492,44.5330929 C214.957288,44.4934865 217.899293,49.7966802 217.899293,55.5020311 C217.899293,61.0834851 215.230734,66.4679227 209.000492,66.4679227 C202.770249,66.4679227 200.101691,61.0834851 200.101691,55.5020311" id="Fill-15" fill="#231F20" mask="url(#mask-2)"></path>
        <polygon id="Fill-16" fill="#231F20" mask="url(#mask-2)" points="225 69 240 69 240 65.4716024 228.826124 65.4716024 228.826124 41 225 41"></polygon>
        <polygon id="Fill-17" fill="#231F20" mask="url(#mask-2)" points="244 69 259 69 259 65.4716024 247.828794 65.4716024 247.828794 41 244 41"></polygon>
        <polygon id="Fill-18" fill="#231F20" mask="url(#mask-2)" points="262 69 277 69 277 65.4716024 265.836053 65.4716024 265.836053 56.2444219 276.00052 56.2444219 276.00052 52.7109533 265.836053 52.7109533 265.836053 44.5294118 277 44.5294118 277 41 262 41"></polygon>
        <path d="M301.724262,42.4054698 C299.426778,41.6042301 297.647561,41 293.608095,41 C285.177948,41 279,46.7437406 279,55.3796617 C279,64.298911 284.819689,70 293.567841,70 C297.885058,70 300.497528,69.2800014 302,68.7559968 L302,54.176279 L292.222358,54.176279 L292.222358,57.4695871 L298.043054,57.4695871 L298.043054,65.9866933 C297.052811,66.1857338 296.339313,66.4670309 293.608095,66.4670309 C287.865894,66.4670309 283.196456,62.0881395 283.196456,55.5015233 C283.196456,49.2347936 287.434172,44.5339847 293.806344,44.5339847 C297.371822,44.5339847 299.469044,45.1768043 301.407263,46.463459 L301.724262,42.4054698 Z" id="Fill-19" fill="#231F20" mask="url(#mask-2)"></path>
        <polygon id="Fill-20" fill="#231F20" mask="url(#mask-2)" points="307 69 322 69 322 65.4716024 310.835826 65.4716024 310.835826 56.2444219 321.0013 56.2444219 321.0013 52.7109533 310.835826 52.7109533 310.835826 44.5294118 322 44.5294118 322 41 307 41"></polygon>
        <path d="M146.125887,23.7547665 C160.533222,21.3046781 163.397373,18.8401043 173.601605,18.0744517 C179.445682,17.4629642 191.083499,20.704572 194,24.6249204 C190.389861,22.6000796 184.671625,20.3196763 171.594182,23.4391935 C165.171235,24.6404404 155.16835,28 147.773906,28 C144.996334,28 133.61624,26.548364 127,21.6419791 C130.30812,22.4086664 135.982059,25.4795543 146.125887,23.7547665" id="Fill-21" fill="#D1252F" mask="url(#mask-2)"></path>
        <path d="M146.125887,14.754503 C160.533222,12.303825 163.397373,9.8407333 173.601605,9.07418522 C179.445682,8.4638433 191.083499,11.7058968 194,15.6234644 C190.389861,13.6010602 184.671625,11.3221055 171.594182,14.4400217 C165.171235,15.6389815 155.16835,19 147.773906,19 C144.996334,19 133.61624,17.5475931 127,12.6431337 C130.30812,13.4107163 135.982059,16.482081 146.125887,14.754503" id="Fill-22" fill="#D1252F" mask="url(#mask-2)"></path>
        <path d="M146.125887,5.75546984 C160.533222,3.30312062 163.397373,0.838354443 173.601605,0.074711522 C179.445682,-0.537858409 191.083499,2.70296765 194,6.6246569 C190.389861,4.59965799 184.671625,2.32011144 171.594182,5.43987215 C165.171235,6.6401781 155.16835,10 147.773906,10 C144.996334,10 133.61624,8.54721591 127,3.64251747 C130.30812,4.40822989 135.982059,7.48039226 146.125887,5.75546984" id="Fill-23" fill="#D1252F" mask="url(#mask-2)"></path>
    </g>
</svg>
